<?xml version="1.0" standalone="no"?>
<!DOCTYPE svg PUBLIC "-//W3C//DTD SVG 20010904//EN"
 "http://www.w3.org/TR/2001/REC-SVG-20010904/DTD/svg10.dtd">
<svg version="1.0" xmlns="http://www.w3.org/2000/svg"
 width="138.000000pt" height="138.000000pt" viewBox="0 0 138.000000 138.000000"
 preserveAspectRatio="xMidYMid meet">
<metadata>
Created by potrace 1.11, written by Peter Selinger 2001-2013
</metadata>
<g transform="translate(0.000000,138.000000) scale(0.100000,-0.100000)"
fill="#000000" stroke="none">
<path d="M460 1278 c-30 -4 -75 -10 -100 -12 -25 -3 -45 -5 -45 -6 0 -1 -7 -3
-16 -5 -41 -8 -59 -18 -60 -33 0 -9 -1 -34 -2 -55 -1 -20 1 -37 4 -37 4 0 3
-17 -1 -38 -4 -21 -3 -48 1 -59 4 -11 4 -25 -1 -32 -4 -7 -5 -27 -1 -45 3 -17
5 -44 4 -61 -6 -62 -5 -134 2 -144 3 -6 1 -11 -5 -11 -6 0 -9 -4 -6 -9 3 -5 8
-40 10 -78 3 -41 14 -89 27 -119 12 -27 23 -52 23 -56 2 -20 96 -134 155 -190
83 -78 129 -118 136 -118 3 0 27 -15 54 -34 l48 -34 49 31 c27 18 51 35 52 39
2 5 10 8 18 8 9 0 13 4 9 9 -3 5 4 12 15 16 33 11 176 158 223 231 38 60 67
119 57 119 -2 0 3 11 10 25 11 20 14 94 15 342 1 281 -1 318 -14 322 -27 8
-124 25 -176 31 -81 10 -425 13 -485 3z"/>
</g>
</svg>
